{"title":"Man Of Tai Chi 2013 CAM XViD UNiQUE","uid":8669231,"size":1544008019,"categoryP":"video","categoryS":"movies","magnet":"?xt=urn:btih:2549040728bd2f887b40b92fd4e7cc8a2223d028&amp;dn=Man+Of+Tai+Chi+2013+CAM+XViD+UNiQUE&amp;tr=udp%3A%2F%2Ftracker.openbittorrent.com%3A80&amp;tr=udp%3A%2F%2Fopen.demonii.com%3A1337&amp;tr=udp%3A%2F%2Ftracker.coppersurfer.tk%3A6969&amp;tr=udp%3A%2F%2Fexodus.desync.com%3A6969","seeders":1,"leechers":0,"uploader":"xxxlavalxxx","files":-1,"time":1373469570,"description":"\n &lt;a href=&quot;\nhttp://www.imdb.com/title/tt2016940/&quot; rel=&quot;nofollow&quot; target=&quot;_NEW&quot;&gt;\nhttp://www.imdb.com/title/tt2016940/&lt;/a&gt;\n\n\n\nA young martial artist's unparalleled Tai Chi skills land him in a highly lucrative underworld fight club. \n\n\n\nDirector:\n Keanu Reeves \n\nWriter:\n Michael G. Cooney \n\nStars:\n Keanu Reeves, Iko Uwais, Tiger Hu Chen\n\nGenres:\n  Action \n\nCountry:\n USA | China | Hong Kong \n\nLanguage:\n Cantonese | English | Mandarin \n\n\n\n\nSource Used        Man.of.Tai.Chi.2013.DVDScr.SmY                - Thanks\n\n\n\n &lt;a href=&quot;\nhttp://www.imdb.com/title/tt2016940&quot; rel=&quot;nofollow&quot; target=&quot;_NEW&quot;&gt;\nhttp://www.imdb.com/title/tt2016940&lt;/a&gt;\n\n\n\n &quot;Man Of Tai Chi&quot; marks the directorial debut of actor Keanu Reeves. Tiger Chen stars as a young martial artist who is recruited to take part in a no-rules underground fighting tournament. The tournament's leader, played by Reeves, is set on corrupting the young fighter.\n\n\n Country:USA | China | Hong Kong\n Language:Cantonese | English | Mandarin\n Release Date:5 July 2013 (China)\n\n\n\n\n\n\n Source has hardcoded english and chinese i believe throughout so left in place for foreign speaking parts\n\n\n cropped sharpened added saturation\n\n\n Format                                   : AVI\n Format/Info                              : Audio Video Interleave\n File size                                : 1.43 GiB\n Duration                                 : 1h 36mn\n Overall bit rate                         : 2 122 Kbps\n Writing application                      : VirtualDubMod 1.5.10.2 (build 2540/release)\n Writing library                          : VirtualDubMod build 2540/release\n\n Video\n ID                                       : 0\n Format                                   : MPEG-4 Visual\n Format profile                           : Advanced Simple@L5\n Format settings, BVOP                    : 2\n Format settings, QPel                    : No\n Format settings, GMC                     : No warppoints\n Format settings, Matrix                  : Default (H.263)\n Muxing mode                              : Packed bitstream\n Codec ID                                 : XVID\n Codec ID/Hint                            : XviD\n Duration                                 : 1h 36mn\n Bit rate                                 : 1 918 Kbps\n Width                                    : 720 pixels\n Height                                   : 288 pixels\n Display aspect ratio                     : 2.500\n Frame rate                               : 29.970 fps\n Color space                              : YUV\n Chroma subsampling                       : 4:2:0\n Bit depth                                : 8 bits\n Scan type                                : Progressive\n Compression mode                         : Lossy\n Bits/(Pixel*Frame)                       : 0.309\n Stream size                              : 1.29 GiB (90%)\n Writing library                          : XviD 64\n\n Audio\n ID                                       : 1\n Format                                   : AC-3\n Format/Info                              : Audio Coding 3\n Mode extension                           : CM (complete main)\n Format settings, Endianness              : Big\n Codec ID                                 : 2000\n Duration                                 : 1h 36mn\n Bit rate mode                            : Constant\n Bit rate                                 : 192 Kbps\n Channel(s)                               : 2 channels\n Channel positions                        : Front: L R\n Sampling rate                            : 48.0 KHz\n Bit depth                                : 16 bits\n Compression mode                         : Lossy\n Stream size                              : 133 MiB (9%)\n Alignment                                : Split accross interleaves\n Interleave, duration                     : 33 ms (1.00 video frame)\n Interleave, preload duration             : 500 ms\n\n\n\n\n\n\n\nscreens\n\n\n\n    &lt;a href=&quot;\thttp://addpix.net/viewer.php?file=12398500990685830758.jpg&quot; rel=&quot;nofollow&quot; target=&quot;_NEW&quot;&gt;\thttp://addpix.net/viewer.php?file=12398500990685830758.jpg&lt;/a&gt;\n    &lt;a href=&quot;\thttp://addpix.net/viewer.php?file=19699292543903412863.jpg&quot; rel=&quot;nofollow&quot; target=&quot;_NEW&quot;&gt;\thttp://addpix.net/viewer.php?file=19699292543903412863.jpg&lt;/a&gt;\n    &lt;a href=&quot;\thttp://addpix.net/viewer.php?file=02146576311355221807.jpg&quot; rel=&quot;nofollow&quot; target=&quot;_NEW&quot;&gt;\thttp://addpix.net/viewer.php?file=02146576311355221807.jpg&lt;/a&gt;\n    &lt;a href=&quot;\thttp://addpix.net/viewer.php?file=48029496879368819569.jpg&quot; rel=&quot;nofollow&quot; target=&quot;_NEW&quot;&gt;\thttp://addpix.net/viewer.php?file=48029496879368819569.jpg&lt;/a&gt;","torrent":{"xt":"urn:btih:2549040728bd2f887b40b92fd4e7cc8a2223d028","amp;dn":"Man+Of+Tai+Chi+2013+CAM+XViD+UNiQUE","amp;tr":["udp%3A%2F%2Ftracker.openbittorrent.com%3A80","udp%3A%2F%2Fopen.demonii.com%3A1337","udp%3A%2F%2Ftracker.coppersurfer.tk%3A6969","udp%3A%2F%2Fexodus.desync.com%3A6969"],"infoHash":"2549040728bd2f887b40b92fd4e7cc8a2223d028","infoHashBuffer":{"type":"Buffer","data":[37,73,4,7,40,189,47,136,123,64,185,47,212,231,204,138,34,35,208,40]},"announce":[],"urlList":[]}}